<svg width="1140" height="43" viewBox="0 0 1140 43" fill="none" xmlns="http://www.w3.org/2000/svg">
<path d="M337.853 21H323.853C323.301 21 322.853 20.5523 322.853 20V11H319.853L330.181 1.6115C330.562 1.26475 331.145 1.26475 331.526 1.6115L341.853 11H338.853V20C338.853 20.5523 338.406 21 337.853 21ZM324.853 19H336.853V9.15745L330.853 3.7029L324.853 9.15745V19ZM326.853 15H334.853V17H326.853V15Z" fill="#AAA8A5"/>
<path d="M392.368 9.10399L393.312 10.112C392.896 10.6347 392.4 11.0293 391.824 11.296C391.259 11.5627 390.64 11.696 389.968 11.696C389.136 11.696 388.406 11.5147 387.776 11.152C387.158 10.7893 386.672 10.288 386.32 9.64799C385.968 9.00799 385.792 8.28266 385.792 7.47199C385.792 6.66133 385.963 5.93599 386.304 5.29599C386.646 4.65599 387.115 4.15466 387.712 3.79199C388.31 3.41866 388.982 3.23199 389.728 3.23199C390.454 3.23199 391.094 3.41333 391.648 3.77599C392.203 4.12799 392.635 4.61866 392.944 5.24799C393.264 5.87733 393.424 6.59733 393.424 7.408V7.98399H387.472C387.568 8.70933 387.84 9.29066 388.288 9.72799C388.736 10.1547 389.323 10.368 390.048 10.368C391.008 10.368 391.782 9.94666 392.368 9.10399ZM389.712 4.55999C389.115 4.55999 388.614 4.76799 388.208 5.18399C387.814 5.58933 387.574 6.13866 387.488 6.832H391.808C391.744 6.128 391.526 5.57333 391.152 5.16799C390.79 4.76266 390.31 4.55999 389.712 4.55999Z" fill="#AAA8A5"/>
<path d="M384.01 11.44H382.41V6.81599C382.41 6.11199 382.272 5.56799 381.994 5.18399C381.717 4.79999 381.333 4.60799 380.842 4.60799C380.234 4.60799 379.738 4.87999 379.354 5.42399C378.981 5.96799 378.794 6.73066 378.794 7.71199V11.44H377.194V6.81599C377.194 6.11199 377.061 5.56799 376.794 5.18399C376.528 4.79999 376.144 4.60799 375.642 4.60799C375.034 4.60799 374.544 4.87999 374.17 5.42399C373.797 5.96799 373.61 6.73066 373.61 7.71199V11.44H372.01V3.488H373.594V4.99199C373.808 4.40533 374.133 3.96799 374.57 3.67999C375.008 3.38133 375.504 3.23199 376.058 3.23199C377.296 3.23199 378.096 3.87199 378.458 5.15199C378.682 4.50133 379.04 4.02133 379.53 3.71199C380.032 3.39199 380.586 3.23199 381.194 3.23199C382.08 3.23199 382.768 3.53066 383.258 4.12799C383.76 4.72533 384.01 5.57866 384.01 6.68799V11.44Z" fill="#AAA8A5"/>
<path d="M366.051 11.696C365.262 11.696 364.558 11.5147 363.939 11.152C363.331 10.7893 362.851 10.288 362.499 9.64799C362.158 9.00799 361.987 8.28266 361.987 7.47199C361.987 6.65066 362.158 5.92 362.499 5.27999C362.851 4.63999 363.331 4.13866 363.939 3.77599C364.547 3.41333 365.246 3.23199 366.035 3.23199C366.835 3.23199 367.539 3.41333 368.147 3.77599C368.766 4.13866 369.246 4.63999 369.587 5.27999C369.939 5.92 370.115 6.65066 370.115 7.47199C370.115 8.28266 369.939 9.00799 369.587 9.64799C369.246 10.288 368.771 10.7893 368.163 11.152C367.555 11.5147 366.851 11.696 366.051 11.696ZM366.051 10.32C366.766 10.32 367.342 10.0587 367.779 9.536C368.217 9.00266 368.435 8.31466 368.435 7.47199C368.435 6.61866 368.217 5.93066 367.779 5.408C367.342 4.87466 366.761 4.60799 366.035 4.60799C365.331 4.60799 364.761 4.87466 364.323 5.408C363.886 5.93066 363.667 6.61866 363.667 7.47199C363.667 8.31466 363.886 9.00266 364.323 9.536C364.761 10.0587 365.337 10.32 366.051 10.32Z" fill="#AAA8A5"/>
<path d="M352.501 11.44H350.853V0H352.501V4.8H358.117V0H359.765V11.44H358.117V6.24H352.501V11.44Z" fill="#AAA8A5"/>
<path d="M430.425 17V20H435.425V22H423.425V20H428.425V17H421.425C420.872 17 420.425 16.5523 420.425 16V4H419.425V2H439.425V4H438.425V16C438.425 16.5523 437.977 17 437.425 17H430.425ZM422.425 15H436.425V4H422.425V15ZM427.425 6L432.425 9.5L427.425 13V6Z" fill="#AAA8A5"/>
<path d="M564.709 3.61603V5.12003H564.373C563.648 5.12003 563.034 5.38136 562.533 5.90403C562.032 6.41603 561.781 7.23203 561.781 8.35203V11.696H560.181V3.74403H561.765V5.42403C562.021 4.75203 562.4 4.28269 562.901 4.01603C563.413 3.74936 563.92 3.61603 564.421 3.61603H564.709Z" fill="#AAA8A5"/>
<path d="M554.222 11.952C553.433 11.952 552.729 11.7707 552.11 11.408C551.502 11.0453 551.022 10.544 550.67 9.90401C550.329 9.26401 550.158 8.53867 550.158 7.72801C550.158 6.90667 550.329 6.17601 550.67 5.53601C551.022 4.89601 551.502 4.39467 552.11 4.03201C552.718 3.66934 553.417 3.48801 554.206 3.48801C555.006 3.48801 555.71 3.66934 556.318 4.03201C556.937 4.39467 557.417 4.89601 557.758 5.53601C558.11 6.17601 558.286 6.90667 558.286 7.72801C558.286 8.53867 558.11 9.26401 557.758 9.90401C557.417 10.544 556.942 11.0453 556.334 11.408C555.726 11.7707 555.022 11.952 554.222 11.952ZM554.222 10.576C554.937 10.576 555.513 10.3147 555.95 9.79201C556.388 9.25867 556.606 8.57067 556.606 7.72801C556.606 6.87467 556.388 6.18667 555.95 5.66401C555.513 5.13067 554.932 4.86401 554.206 4.86401C553.502 4.86401 552.932 5.13067 552.494 5.66401C552.057 6.18667 551.838 6.87467 551.838 7.72801C551.838 8.57067 552.057 9.25867 552.494 9.79201C552.932 10.3147 553.508 10.576 554.222 10.576Z" fill="#AAA8A5"/>
<path d="M549.181 11.696H547.373C546.114 11.696 545.485 11.0454 545.485 9.74402V5.08802H544.077V3.74402H545.485V1.52002H547.085V3.74402H549.085V5.08802H547.085V9.53602C547.085 10.08 547.341 10.352 547.853 10.352H549.181V11.696Z" fill="#AAA8A5"/>
<path d="M538.527 11.952C537.962 11.952 537.46 11.8453 537.023 11.632C536.586 11.408 536.244 11.104 535.999 10.72C535.764 10.336 535.647 9.89867 535.647 9.40801C535.647 8.58667 535.962 7.94667 536.591 7.48801C537.22 7.01867 538.079 6.78401 539.167 6.78401H541.167C541.167 6.17601 540.98 5.69067 540.607 5.32801C540.244 4.96534 539.732 4.78401 539.071 4.78401C538.239 4.78401 537.492 5.13601 536.831 5.84001L535.903 4.84801C536.842 3.94134 537.94 3.48801 539.199 3.48801C539.903 3.48801 540.511 3.62667 541.023 3.90401C541.546 4.17067 541.951 4.54934 542.239 5.04001C542.527 5.52001 542.671 6.08534 542.671 6.73601V11.696H541.215V10.656C540.927 11.0613 540.548 11.3813 540.079 11.616C539.62 11.84 539.103 11.952 538.527 11.952ZM538.847 10.704C539.391 10.704 539.866 10.5653 540.271 10.288C540.687 10 540.986 9.62134 541.167 9.15201V7.92001H539.311C538.671 7.92001 538.17 8.04801 537.807 8.30401C537.455 8.54934 537.279 8.89601 537.279 9.34401C537.279 9.74934 537.418 10.08 537.695 10.336C537.983 10.5813 538.367 10.704 538.847 10.704Z" fill="#AAA8A5"/>
<path d="M534.849 3.61603V5.12003H534.513C533.788 5.12003 533.175 5.38136 532.673 5.90403C532.172 6.41603 531.921 7.23203 531.921 8.35203V11.696H530.321V3.74403H531.905V5.42403C532.161 4.75203 532.54 4.28269 533.041 4.01603C533.553 3.74936 534.06 3.61603 534.561 3.61603H534.849Z" fill="#AAA8A5"/>
<path d="M527.343 9.36001L528.287 10.368C527.871 10.8907 527.375 11.2853 526.799 11.552C526.234 11.8187 525.615 11.952 524.943 11.952C524.111 11.952 523.38 11.7707 522.751 11.408C522.132 11.0453 521.647 10.544 521.295 9.90401C520.943 9.26401 520.767 8.53867 520.767 7.72801C520.767 6.91734 520.938 6.19201 521.279 5.55201C521.62 4.91201 522.09 4.41067 522.687 4.04801C523.284 3.67467 523.956 3.48801 524.703 3.48801C525.428 3.48801 526.068 3.66934 526.623 4.03201C527.178 4.38401 527.61 4.87467 527.919 5.50401C528.239 6.13334 528.399 6.85334 528.399 7.66401V8.24001H522.447C522.543 8.96534 522.815 9.54667 523.263 9.98401C523.711 10.4107 524.298 10.624 525.023 10.624C525.983 10.624 526.756 10.2027 527.343 9.36001ZM524.687 4.81601C524.09 4.81601 523.588 5.02401 523.183 5.44001C522.788 5.84534 522.548 6.39467 522.463 7.08801H526.783C526.719 6.38401 526.5 5.82934 526.127 5.42401C525.764 5.01867 525.284 4.81601 524.687 4.81601Z" fill="#AAA8A5"/>
<path d="M518.995 11.696H517.395V7.12001C517.395 6.36267 517.24 5.79734 516.931 5.42401C516.632 5.05067 516.221 4.86401 515.699 4.86401C515.325 4.86401 514.968 4.97067 514.627 5.18401C514.296 5.39734 514.024 5.73867 513.811 6.20801C513.608 6.66667 513.507 7.26401 513.507 8.00001V11.696H511.907V3.74401H513.491V5.28001C513.736 4.60801 514.104 4.14401 514.595 3.88801C515.085 3.62134 515.587 3.48801 516.099 3.48801C516.995 3.48801 517.699 3.78667 518.211 4.38401C518.733 4.97067 518.995 5.82401 518.995 6.94401V11.696Z" fill="#AAA8A5"/>
<path d="M508.929 9.36001L509.873 10.368C509.457 10.8907 508.961 11.2853 508.385 11.552C507.819 11.8187 507.201 11.952 506.529 11.952C505.697 11.952 504.966 11.7707 504.337 11.408C503.718 11.0453 503.233 10.544 502.881 9.90401C502.529 9.26401 502.353 8.53867 502.353 7.72801C502.353 6.91734 502.523 6.19201 502.865 5.55201C503.206 4.91201 503.675 4.41067 504.273 4.04801C504.87 3.67467 505.542 3.48801 506.289 3.48801C507.014 3.48801 507.654 3.66934 508.209 4.03201C508.763 4.38401 509.195 4.87467 509.505 5.50401C509.825 6.13334 509.985 6.85334 509.985 7.66401V8.24001H504.033C504.129 8.96534 504.401 9.54667 504.849 9.98401C505.297 10.4107 505.883 10.624 506.609 10.624C507.569 10.624 508.342 10.2027 508.929 9.36001ZM506.273 4.81601C505.675 4.81601 505.174 5.02401 504.769 5.44001C504.374 5.84534 504.134 6.39467 504.049 7.08801H508.369C508.305 6.38401 508.086 5.82934 507.713 5.42401C507.35 5.01867 506.87 4.81601 506.273 4.81601Z" fill="#AAA8A5"/>
<path d="M500.574 11.696H499.038V10.4C498.675 10.9013 498.2 11.2853 497.614 11.552C497.027 11.8187 496.36 11.952 495.614 11.952C494.835 11.952 494.11 11.8027 493.438 11.504C492.776 11.2053 492.195 10.7893 491.694 10.256C491.203 9.712 490.819 9.07733 490.542 8.352C490.275 7.62667 490.142 6.832 490.142 5.968C490.142 5.11467 490.28 4.32533 490.558 3.6C490.846 2.87467 491.24 2.24533 491.742 1.712C492.243 1.168 492.835 0.746667 493.518 0.448C494.2 0.149333 494.942 0 495.742 0C496.659 0 497.502 0.186666 498.27 0.559999C499.048 0.933333 499.694 1.46667 500.206 2.16L499.086 3.28C498.275 2.07467 497.155 1.472 495.726 1.472C494.979 1.472 494.312 1.664 493.726 2.048C493.15 2.432 492.696 2.96533 492.366 3.648C492.035 4.32 491.87 5.09333 491.87 5.968C491.87 6.85333 492.035 7.63733 492.366 8.32C492.707 9.00267 493.176 9.536 493.774 9.92C494.382 10.2933 495.08 10.48 495.87 10.48C496.552 10.48 497.171 10.3307 497.726 10.032C498.28 9.72267 498.712 9.296 499.022 8.752V6.992H495.694V5.6H500.574V11.696Z" fill="#AAA8A5"/>
<path d="M479.819 11.696H478.219V0.176025H479.819V7.31203L483.339 3.74403H485.339L481.467 7.56803L485.787 11.696H483.643L479.819 7.96803V11.696Z" fill="#AAA8A5"/>
<path d="M475.53 9.37601L476.57 10.4C476.186 10.8907 475.717 11.2747 475.162 11.552C474.607 11.8187 473.999 11.952 473.338 11.952C472.549 11.952 471.845 11.7707 471.226 11.408C470.618 11.0453 470.138 10.5493 469.786 9.92001C469.445 9.28001 469.274 8.54934 469.274 7.72801C469.274 6.89601 469.445 6.16534 469.786 5.53601C470.138 4.89601 470.623 4.39467 471.242 4.03201C471.861 3.66934 472.565 3.48801 473.354 3.48801C474.719 3.48801 475.797 4.00534 476.586 5.04001L475.514 6.06401C475.034 5.26401 474.325 4.86401 473.386 4.86401C472.671 4.86401 472.085 5.12534 471.626 5.64801C471.178 6.16001 470.954 6.85334 470.954 7.72801C470.954 8.58134 471.183 9.27467 471.642 9.80801C472.101 10.3307 472.693 10.592 473.418 10.592C473.866 10.592 474.266 10.4907 474.618 10.288C474.97 10.0747 475.274 9.77067 475.53 9.37601Z" fill="#AAA8A5"/>
<path d="M466.76 9.36001L467.704 10.368C467.288 10.8907 466.792 11.2853 466.216 11.552C465.651 11.8187 465.032 11.952 464.36 11.952C463.528 11.952 462.797 11.7707 462.168 11.408C461.549 11.0453 461.064 10.544 460.712 9.90401C460.36 9.26401 460.184 8.53867 460.184 7.72801C460.184 6.91734 460.355 6.19201 460.696 5.55201C461.037 4.91201 461.507 4.41067 462.104 4.04801C462.701 3.67467 463.373 3.48801 464.12 3.48801C464.845 3.48801 465.485 3.66934 466.04 4.03201C466.595 4.38401 467.027 4.87467 467.336 5.50401C467.656 6.13334 467.816 6.85334 467.816 7.66401V8.24001H461.864C461.96 8.96534 462.232 9.54667 462.68 9.98401C463.128 10.4107 463.715 10.624 464.44 10.624C465.4 10.624 466.173 10.2027 466.76 9.36001ZM464.104 4.81601C463.507 4.81601 463.005 5.02401 462.6 5.44001C462.205 5.84534 461.965 6.39467 461.88 7.08801H466.2C466.136 6.38401 465.917 5.82934 465.544 5.42401C465.181 5.01867 464.701 4.81601 464.104 4.81601Z" fill="#AAA8A5"/>
<path d="M449.425 11.696V0.256012H453.201C454.331 0.256012 455.323 0.501345 456.177 0.992012C457.03 1.48268 457.697 2.16001 458.177 3.02401C458.657 3.87735 458.897 4.85868 458.897 5.96801C458.897 7.08801 458.657 8.08001 458.177 8.94401C457.697 9.79735 457.03 10.4693 456.177 10.96C455.323 11.4507 454.331 11.696 453.201 11.696H449.425ZM451.073 10.256H453.201C454.022 10.256 454.726 10.08 455.313 9.72801C455.91 9.36535 456.369 8.86401 456.689 8.22401C457.009 7.57335 457.169 6.82135 457.169 5.96801C457.169 5.11468 457.009 4.36801 456.689 3.72801C456.369 3.08801 455.91 2.59201 455.313 2.24001C454.726 1.87735 454.022 1.69601 453.201 1.69601H451.073V10.256Z" fill="#AAA8A5"/>
<path d="M591.709 3C591.157 3 590.709 3.44772 590.709 4V20C590.709 20.5523 591.157 21 591.709 21H609.709C610.261 21 610.709 20.5523 610.709 20V4C610.709 3.44772 610.261 3 609.709 3H591.709ZM592.709 19V5H608.709V19H592.709ZM602.709 7H594.709V9H602.709V7ZM606.709 15V17H598.709V15H606.709ZM604.709 11H596.709V13H604.709V11Z" fill="#AAA8A5"/>
<path d="M692.528 9.69601V11.2H692.192C691.466 11.2 690.853 11.4613 690.352 11.984C689.85 12.496 689.6 13.312 689.6 14.432V17.776H688V9.82401H689.584V11.504C689.84 10.832 690.218 10.3627 690.72 10.096C691.232 9.82935 691.738 9.69601 692.24 9.69601H692.528Z" fill="#AAA8A5"/>
<path d="M682.041 18.032C681.252 18.032 680.548 17.8507 679.929 17.488C679.321 17.1253 678.841 16.624 678.489 15.984C678.148 15.344 677.977 14.6187 677.977 13.808C677.977 12.9867 678.148 12.256 678.489 11.616C678.841 10.976 679.321 10.4747 679.929 10.112C680.537 9.74933 681.236 9.56799 682.025 9.56799C682.825 9.56799 683.529 9.74933 684.137 10.112C684.756 10.4747 685.236 10.976 685.577 11.616C685.929 12.256 686.105 12.9867 686.105 13.808C686.105 14.6187 685.929 15.344 685.577 15.984C685.236 16.624 684.761 17.1253 684.153 17.488C683.545 17.8507 682.841 18.032 682.041 18.032ZM682.041 16.656C682.756 16.656 683.332 16.3947 683.769 15.872C684.206 15.3387 684.425 14.6507 684.425 13.808C684.425 12.9547 684.206 12.2667 683.769 11.744C683.332 11.2107 682.75 10.944 682.025 10.944C681.321 10.944 680.75 11.2107 680.313 11.744C679.876 12.2667 679.657 12.9547 679.657 13.808C679.657 14.6507 679.876 15.3387 680.313 15.872C680.75 16.3947 681.326 16.656 682.041 16.656Z" fill="#AAA8A5"/>
<path d="M677 17.776H675.192C673.933 17.776 673.304 17.1253 673.304 15.824V11.168H671.896V9.82401H673.304V7.60001H674.904V9.82401H676.904V11.168H674.904V15.616C674.904 16.16 675.16 16.432 675.672 16.432H677V17.776Z" fill="#AAA8A5"/>
<path d="M666.345 18.032C665.78 18.032 665.279 17.9253 664.841 17.712C664.404 17.488 664.063 17.184 663.817 16.8C663.583 16.416 663.465 15.9787 663.465 15.488C663.465 14.6667 663.78 14.0267 664.409 13.568C665.039 13.0987 665.897 12.864 666.985 12.864H668.985C668.985 12.256 668.799 11.7707 668.425 11.408C668.063 11.0453 667.551 10.864 666.889 10.864C666.057 10.864 665.311 11.216 664.649 11.92L663.721 10.928C664.66 10.0213 665.759 9.56799 667.017 9.56799C667.721 9.56799 668.329 9.70666 668.841 9.98399C669.364 10.2507 669.769 10.6293 670.057 11.12C670.345 11.6 670.489 12.1653 670.489 12.816V17.776H669.033V16.736C668.745 17.1413 668.367 17.4613 667.897 17.696C667.439 17.92 666.921 18.032 666.345 18.032ZM666.665 16.784C667.209 16.784 667.684 16.6453 668.089 16.368C668.505 16.08 668.804 15.7013 668.985 15.232V14H667.129C666.489 14 665.988 14.128 665.625 14.384C665.273 14.6293 665.097 14.976 665.097 15.424C665.097 15.8293 665.236 16.16 665.513 16.416C665.801 16.6613 666.185 16.784 666.665 16.784Z" fill="#AAA8A5"/>
<path d="M661.827 17.776H660.227V13.152C660.227 12.448 660.088 11.904 659.811 11.52C659.534 11.136 659.15 10.944 658.659 10.944C658.051 10.944 657.555 11.216 657.171 11.76C656.798 12.304 656.611 13.0667 656.611 14.048V17.776H655.011V13.152C655.011 12.448 654.878 11.904 654.611 11.52C654.344 11.136 653.96 10.944 653.459 10.944C652.851 10.944 652.36 11.216 651.987 11.76C651.614 12.304 651.427 13.0667 651.427 14.048V17.776H649.827V9.82399H651.411V11.328C651.624 10.7413 651.95 10.304 652.387 10.016C652.824 9.71733 653.32 9.56799 653.875 9.56799C655.112 9.56799 655.912 10.208 656.275 11.488C656.499 10.8373 656.856 10.3573 657.347 10.048C657.848 9.72799 658.403 9.56799 659.011 9.56799C659.896 9.56799 660.584 9.86666 661.075 10.464C661.576 11.0613 661.827 11.9147 661.827 13.024V17.776Z" fill="#AAA8A5"/>
<path d="M647.702 7.00799C647.702 7.30665 647.601 7.55199 647.398 7.74399C647.206 7.93599 646.961 8.03199 646.662 8.03199C646.363 8.03199 646.113 7.93599 645.91 7.74399C645.707 7.55199 645.606 7.30665 645.606 7.00799C645.606 6.69865 645.707 6.44799 645.91 6.25599C646.113 6.06399 646.363 5.96799 646.662 5.96799C646.961 5.96799 647.206 6.06399 647.398 6.25599C647.601 6.44799 647.702 6.69865 647.702 7.00799ZM647.462 17.776H645.862V9.82399H647.462V17.776Z" fill="#AAA8A5"/>
<path d="M644.155 17.776H642.347C641.089 17.776 640.459 17.1253 640.459 15.824V11.168H639.051V9.82401H640.459V7.60001H642.059V9.82401H644.059V11.168H642.059V15.616C642.059 16.16 642.315 16.432 642.827 16.432H644.155V17.776Z" fill="#AAA8A5"/>
<path d="M631.1 16.576L631.996 15.536C632.337 15.9093 632.726 16.208 633.164 16.432C633.612 16.656 634.113 16.768 634.668 16.768C635.201 16.768 635.628 16.656 635.948 16.432C636.268 16.1973 636.428 15.8987 636.428 15.536C636.428 15.2267 636.289 14.9813 636.012 14.8C635.734 14.6187 635.249 14.4747 634.556 14.368C633.436 14.1973 632.636 13.9307 632.156 13.568C631.686 13.1947 631.452 12.688 631.452 12.048C631.452 11.5467 631.585 11.1147 631.852 10.752C632.118 10.3787 632.486 10.0907 632.956 9.88799C633.436 9.67466 633.985 9.56799 634.604 9.56799C635.297 9.56799 635.916 9.69599 636.46 9.95199C637.004 10.1973 637.489 10.5547 637.916 11.024L636.988 12.064C636.689 11.68 636.342 11.3813 635.948 11.168C635.564 10.944 635.121 10.832 634.62 10.832C634.15 10.832 633.766 10.9387 633.468 11.152C633.169 11.3547 633.02 11.6213 633.02 11.952C633.02 12.2187 633.142 12.4267 633.388 12.576C633.644 12.7253 634.113 12.8533 634.796 12.96C635.969 13.1307 636.796 13.4187 637.276 13.824C637.766 14.2187 638.012 14.7733 638.012 15.488C638.012 15.9893 637.868 16.432 637.58 16.816C637.302 17.2 636.908 17.4987 636.396 17.712C635.894 17.9253 635.313 18.032 634.652 18.032C633.894 18.032 633.217 17.904 632.62 17.648C632.033 17.392 631.526 17.0347 631.1 16.576Z" fill="#AAA8A5"/>
<path d="M630.069 17.776H622.709V6.336H630.069V7.76H624.357V11.232H629.781V12.656H624.357V16.352H630.069V17.776Z" fill="#AAA8A5"/>
<g clip-path="url(#clip0_4_1702)">
<path d="M721.532 9.00268C722.085 9.00268 722.532 9.45039 722.532 10.0027C724.167 10.0027 725.671 10.5631 726.862 11.5022L729.032 11.5027C730.364 11.5027 731.561 12.0815 732.385 13.0014L735.532 13.0027C737.525 13.0027 739.245 14.1679 740.048 15.8541C737.684 18.9747 733.854 21.0027 729.532 21.0027C726.742 21.0027 724.382 20.3994 722.471 19.3447C722.333 19.7283 721.965 20.0027 721.532 20.0027H718.532C717.98 20.0027 717.532 19.555 717.532 19.0027V10.0027C717.532 9.45039 717.98 9.00268 718.532 9.00268H721.532ZM722.533 12.0027L722.532 17.0238L722.578 17.0572C724.371 18.3176 726.71 19.0027 729.532 19.0027C732.536 19.0027 735.331 17.847 737.367 15.8732L737.5 15.7397L737.381 15.6393C736.917 15.2763 736.348 15.051 735.737 15.0096L735.532 15.0027L733.421 15.0017C733.494 15.3236 733.532 15.6586 733.532 16.0027V17.0027H724.532V15.0027L731.322 15.0017L731.288 14.9232C730.907 14.1296 730.12 13.568 729.197 13.508L729.032 13.5027L726.103 13.5025C725.196 12.5772 723.931 12.003 722.533 12.0027ZM720.532 11.0027H719.532V18.0027H720.532V11.0027ZM730.179 3.57806L730.532 3.93183L730.886 3.57806C731.862 2.60175 733.445 2.60175 734.421 3.57806C735.398 4.55437 735.398 6.13728 734.421 7.11359L730.532 11.0027L726.643 7.11359C725.667 6.13728 725.667 4.55437 726.643 3.57806C727.619 2.60175 729.202 2.60175 730.179 3.57806ZM728.057 4.99227C727.884 5.16584 727.865 5.43526 727.999 5.62938L728.056 5.69831L730.531 8.17368L733.007 5.69938C733.181 5.52581 733.2 5.25639 733.065 5.06152L733.007 4.99227C732.834 4.81871 732.564 4.79942 732.369 4.93457L732.3 4.99249L730.531 6.76111L728.763 4.9912L728.695 4.93442C728.5 4.79942 728.231 4.81871 728.057 4.99227Z" fill="#AAA8A5"/>
</g>
<path d="M821.147 9.552V11.056H820.811C820.085 11.056 819.472 11.3173 818.971 11.84C818.469 12.352 818.219 13.168 818.219 14.288V17.632H816.619V9.68H818.203V11.36C818.459 10.688 818.837 10.2187 819.339 9.952C819.851 9.68534 820.357 9.552 820.859 9.552H821.147Z" fill="#AAA8A5"/>
<path d="M813.64 15.296L814.584 16.304C814.168 16.8266 813.672 17.2213 813.096 17.488C812.531 17.7546 811.912 17.888 811.24 17.888C810.408 17.888 809.678 17.7066 809.048 17.344C808.43 16.9813 807.944 16.48 807.592 15.84C807.24 15.2 807.064 14.4746 807.064 13.664C807.064 12.8533 807.235 12.128 807.576 11.488C807.918 10.848 808.387 10.3466 808.984 9.98398C809.582 9.61065 810.254 9.42398 811 9.42398C811.726 9.42398 812.366 9.60531 812.92 9.96798C813.475 10.32 813.907 10.8106 814.216 11.44C814.536 12.0693 814.696 12.7893 814.696 13.6V14.176H808.744C808.84 14.9013 809.112 15.4826 809.56 15.92C810.008 16.3466 810.595 16.56 811.32 16.56C812.28 16.56 813.054 16.1386 813.64 15.296ZM810.984 10.752C810.387 10.752 809.886 10.96 809.48 11.376C809.086 11.7813 808.846 12.3306 808.76 13.024H813.08C813.016 12.32 812.798 11.7653 812.424 11.36C812.062 10.9546 811.582 10.752 810.984 10.752Z" fill="#AAA8A5"/>
<path d="M803.188 17.632H801.62L798.42 9.67999H800.1L802.436 16.016L804.788 9.67999H806.388L803.188 17.632Z" fill="#AAA8A5"/>
<path d="M793.668 17.888C792.878 17.888 792.174 17.7066 791.556 17.344C790.948 16.9813 790.468 16.48 790.116 15.84C789.774 15.2 789.604 14.4746 789.604 13.664C789.604 12.8426 789.774 12.112 790.116 11.472C790.468 10.832 790.948 10.3306 791.556 9.96798C792.164 9.60531 792.862 9.42398 793.652 9.42398C794.452 9.42398 795.156 9.60531 795.764 9.96798C796.382 10.3306 796.862 10.832 797.204 11.472C797.556 12.112 797.732 12.8426 797.732 13.664C797.732 14.4746 797.556 15.2 797.204 15.84C796.862 16.48 796.388 16.9813 795.78 17.344C795.172 17.7066 794.468 17.888 793.668 17.888ZM793.668 16.512C794.382 16.512 794.958 16.2506 795.396 15.728C795.833 15.1946 796.052 14.5066 796.052 13.664C796.052 12.8106 795.833 12.1226 795.396 11.6C794.958 11.0666 794.377 10.8 793.652 10.8C792.948 10.8 792.377 11.0666 791.94 11.6C791.502 12.1226 791.284 12.8106 791.284 13.664C791.284 14.5066 791.502 15.1946 791.94 15.728C792.377 16.2506 792.953 16.512 793.668 16.512Z" fill="#AAA8A5"/>
<path d="M786.118 17.632V16.48C785.852 16.9067 785.484 17.248 785.014 17.504C784.556 17.76 784.028 17.888 783.43 17.888C782.716 17.888 782.07 17.712 781.494 17.36C780.929 16.9973 780.476 16.496 780.134 15.856C779.804 15.216 779.638 14.4853 779.638 13.664C779.638 12.8427 779.804 12.112 780.134 11.472C780.476 10.832 780.929 10.3307 781.494 9.968C782.07 9.60533 782.71 9.424 783.414 9.424C784.012 9.424 784.54 9.56267 784.998 9.84C785.468 10.1067 785.836 10.464 786.102 10.912V6.112H787.702V17.632H786.118ZM781.318 13.664C781.318 14.2187 781.42 14.7147 781.622 15.152C781.836 15.5787 782.124 15.9147 782.486 16.16C782.86 16.4053 783.286 16.528 783.766 16.528C784.31 16.528 784.79 16.3733 785.206 16.064C785.633 15.744 785.932 15.3333 786.102 14.832V13.808C786.102 12.912 785.878 12.1867 785.43 11.632C784.993 11.0773 784.422 10.8 783.718 10.8C783.249 10.8 782.833 10.9227 782.47 11.168C782.108 11.4133 781.825 11.7493 781.622 12.176C781.42 12.6027 781.318 13.0987 781.318 13.664Z" fill="#AAA8A5"/>
<path d="M777.866 17.632H776.266V13.056C776.266 12.2986 776.111 11.7333 775.802 11.36C775.503 10.9866 775.092 10.8 774.57 10.8C774.196 10.8 773.839 10.9066 773.498 11.12C773.167 11.3333 772.895 11.6746 772.682 12.144C772.479 12.6026 772.378 13.2 772.378 13.936V17.632H770.778V9.67998H772.362V11.216C772.607 10.544 772.975 10.08 773.466 9.82398C773.956 9.55731 774.458 9.42398 774.97 9.42398C775.866 9.42398 776.57 9.72265 777.082 10.32C777.604 10.9066 777.866 11.76 777.866 12.88V17.632Z" fill="#AAA8A5"/>
<path d="M764.398 17.888C763.832 17.888 763.331 17.7813 762.894 17.568C762.456 17.344 762.115 17.04 761.87 16.656C761.635 16.272 761.518 15.8346 761.518 15.344C761.518 14.5226 761.832 13.8826 762.462 13.424C763.091 12.9546 763.95 12.72 765.038 12.72H767.038C767.038 12.112 766.851 11.6266 766.478 11.264C766.115 10.9013 765.603 10.72 764.942 10.72C764.11 10.72 763.363 11.072 762.702 11.776L761.774 10.784C762.712 9.87731 763.811 9.42398 765.07 9.42398C765.774 9.42398 766.382 9.56265 766.894 9.83998C767.416 10.1066 767.822 10.4853 768.11 10.976C768.398 11.456 768.542 12.0213 768.542 12.672V17.632H767.086V16.592C766.798 16.9973 766.419 17.3173 765.95 17.552C765.491 17.776 764.974 17.888 764.398 17.888ZM764.718 16.64C765.262 16.64 765.736 16.5013 766.142 16.224C766.558 15.936 766.856 15.5573 767.038 15.088V13.856H765.182C764.542 13.856 764.04 13.984 763.678 14.24C763.326 14.4853 763.15 14.832 763.15 15.28C763.15 15.6853 763.288 16.016 763.566 16.272C763.854 16.5173 764.238 16.64 764.718 16.64Z" fill="#AAA8A5"/>
<path d="M752.175 17.632H750.527V6.19199H752.175V10.992H757.791V6.19199H759.439V17.632H757.791V12.432H752.175V17.632Z" fill="#AAA8A5"/>
<path d="M1140 38V39H0V38H1140Z" fill="#E3E1DD"/>
<defs>
<clipPath id="clip0_4_1702">
<rect width="24" height="24" fill="white" transform="translate(716.527)"/>
</clipPath>
</defs>
</svg>
